{
  "accessors": [
    {
      "bufferView": 2,
      "componentType": 5126,
      "count": 17924,
      "max": [
        18.071041107177734,
        2.0999999046325684,
        2.0999999046325684
      ],
      "min": [
        -2.0799999237060547,
        -0.10448416322469711,
        -2.0999999046325684
      ],
      "type": "VEC3"
    },
    {
      "bufferView": 2,
      "byteOffset": 215088,
      "componentType": 5126,
      "count": 17924,
      "max": [
        1.0,
        1.0,
        1.0
      ],
      "min": [
        -1.0,
        -1.0,
        -1.0
      ],
      "type": "VEC3"
    },
    {
      "bufferView": 3,
      "componentType": 5126,
      "count": 17924,
      "max": [
        1.0,
        1.0,
        1.0,
        1.0
      ],
      "min": [
        -1.0,
        -0.6241191625595093,
        -1.0,
        -1.0
      ],
      "type": "VEC4"
    },
    {
      "bufferView": 1,
      "componentType": 5126,
      "count": 17924,
      "max": [
        4.582082271575928,
        6.450307369232178
      ],
      "min": [
        -3.5820822715759277,
        -5.560484409332275
      ],
      "type": "VEC2"
    },
    {
      "bufferView": 0,
      "componentType": 5125,
      "count": 49620,
      "type": "SCALAR"
    },
    {
      "bufferView": 2,
      "byteOffset": 430176,
      "componentType": 5126,
      "count": 40,
      "max": [
        17.991039276123047,
        1.7868720293045044,
        1.8680697679519653
      ],
      "min": [
        -2.0,
        1.7404601573944092,
        -1.8680697679519653
      ],
      "type": "VEC3"
    },
    {
      "bufferView": 2,
      "byteOffset": 430656,
      "componentType": 5126,
      "count": 40,
      "max": [
        0.0,
        -0.6026347875595093,
        0.798017144203186
      ],
      "min": [
        0.0,
        -0.6736955642700195,
        -0.798017144203186
      ],
      "type": "VEC3"
    },
    {
      "bufferView": 1,
      "byteOffset": 143392,
      "componentType": 5126,
      "count": 40,
      "max": [
        8.35015869140625,
        5.221256732940674
      ],
      "min": [
        -7.35015869140625,
        5.039085388183594
      ],
      "type": "VEC2"
    },
    {
      "bufferView": 0,
      "byteOffset": 198480,
      "componentType": 5125,
      "count": 60,
      "type": "SCALAR"
    },
    {
      "bufferView": 2,
      "byteOffset": 431136,
      "componentType": 5126,
      "count": 1740,
      "max": [
        17.991039276123047,
        0.4431946575641632,
        1.8872339725494385
      ],
      "min": [
        -2.0,
        0.2549256682395935,
        -1.8872339725494385
      ],
      "type": "VEC3"
    },
    {
      "bufferView": 2,
      "byteOffset": 452016,
      "componentType": 5126,
      "count": 1740,
      "max": [
        1.0,
        1.0,
        1.0
      ],
      "min": [
        -1.0,
        -1.0,
        -1.0
      ],
      "type": "VEC3"
    },
    {
      "bufferView": 1,
      "byteOffset": 143712,
      "componentType": 5126,
      "count": 1740,
      "max": [
        1.0,
        1.0
      ],
      "min": [
        0.0,
        0.01000000536441803
      ],
      "type": "VEC2"
    },
    {
      "bufferView": 0,
      "byteOffset": 198720,
      "componentType": 5125,
      "count": 4620,
      "type": "SCALAR"
    },
    {
      "bufferView": 2,
      "byteOffset": 472896,
      "componentType": 5126,
      "count": 65533,
      "max": [
        18.03228187561035,
        0.30726176500320435,
        1.0099999904632568
      ],
      "min": [
        -2.0412421226501465,
        -0.007261765189468861,
        -1.0099999904632568
      ],
      "type": "VEC3"
    },
    {
      "bufferView": 2,
      "byteOffset": 1259292,
      "componentType": 5126,
      "count": 65533,
      "max": [
        1.0,
        1.0,
        1.0
      ],
      "min": [
        -1.0,
        -1.0,
        -1.0
      ],
      "type": "VEC3"
    },
    {
      "bufferView": 1,
      "byteOffset": 157632,
      "componentType": 5126,
      "count": 65533,
      "max": [
        1.0,
        0.5385209321975708
      ],
      "min": [
        0.0,
        0.46147871017456055
      ],
      "type": "VEC2"
    },
    {
      "bufferView": 0,
      "byteOffset": 217200,
      "componentType": 5125,
      "count": 165975,
      "type": "SCALAR"
    },
    {
      "bufferView": 2,
      "byteOffset": 2045688,
      "componentType": 5126,
      "count": 23641,
      "max": [
        18.03228187561035,
        0.30726176500320435,
        1.0099999904632568
      ],
      "min": [
        5.954277992248535,
        -0.007261765189468861,
        -1.0099999904632568
      ],
      "type": "VEC3"
    },
    {
      "bufferView": 2,
      "byteOffset": 2329380,
      "componentType": 5126,
      "count": 23641,
      "max": [
        1.0,
        1.0,
        1.0
      ],
      "min": [
        -1.0,
        -1.0,
        -1.0
      ],
      "type": "VEC3"
    },
    {
      "bufferView": 1,
      "byteOffset": 681896,
      "componentType": 5126,
      "count": 23641,
      "max": [
        0.9987752437591553,
        0.5334104895591736
      ],
      "min": [
        0.0012247264385223389,
        0.46658915281295776
      ],
      "type": "VEC2"
    },
    {
      "bufferView": 0,
      "byteOffset": 881100,
      "componentType": 5125,
      "count": 36705,
      "type": "SCALAR"
    },
    {
      "bufferView": 2,
      "byteOffset": 2613072,
      "componentType": 5126,
      "count": 200,
      "max": [
        18.071041107177734,
        2.0856685638427734,
        1.7542076110839844
      ],
      "min": [
        -2.0799999237060547,
        -0.004474171437323093,
        -1.7542076110839844
      ],
      "type": "VEC3"
    },
    {
      "bufferView": 2,
      "byteOffset": 2615472,
      "componentType": 5126,
      "count": 200,
      "max": [
        0.0,
        1.0,
        0.4039168059825897
      ],
      "min": [
        0.0,
        0.9147957563400269,
        -0.4039168059825897
      ],
      "type": "VEC3"
    },
    {
      "bufferView": 1,
      "byteOffset": 871024,
      "componentType": 5126,
      "count": 200,
      "max": [
        8.664164543151855,
        1.3249194622039795
      ],
      "min": [
        -7.6641645431518555,
        -1.2058688402175903
      ],
      "type": "VEC2"
    },
    {
      "bufferView": 0,
      "byteOffset": 1027920,
      "componentType": 5125,
      "count": 300,
      "type": "SCALAR"
    },
    {
      "bufferView": 2,
      "byteOffset": 2617872,
      "componentType": 5126,
      "count": 80,
      "max": [
        17.971031188964844,
        1.9537839889526367,
        1.6223231554031372
      ],
      "min": [
        -1.979990005493164,
        0.046215999871492386,
        -1.6223231554031372
      ],
      "type": "VEC3"
    },
    {
      "bufferView": 2,
      "byteOffset": 2618832,
      "componentType": 5126,
      "count": 80,
      "max": [
        0.0,
        0.9147934317588806,
        0.40392211079597473
      ],
      "min": [
        0.0,
        -0.9147962331771851,
        -0.40392211079597473
      ],
      "type": "VEC3"
    },
    {
      "bufferView": 1,
      "byteOffset": 872624,
      "componentType": 5126,
      "count": 80,
      "max": [
        8.271617889404297,
        0.8072625994682312
      ],
      "min": [
        -7.271617889404297,
        0.7343432903289795
      ],
      "type": "VEC2"
    },
    {
      "bufferView": 0,
      "byteOffset": 1029120,
      "componentType": 5125,
      "count": 120,
      "type": "SCALAR"
    },
    {
      "bufferView": 2,
      "byteOffset": 2619792,
      "componentType": 5126,
      "count": 80,
      "max": [
        17.97179412841797,
        0.3347649574279785,
        1.7113878726959229
      ],
      "min": [
        -1.9807534217834473,
        0.3116549551486969,
        -1.7113878726959229
      ],
      "type": "VEC3"
    },
    {
      "bufferView": 2,
      "byteOffset": 2620752,
      "componentType": 5126,
      "count": 80,
      "max": [
        8.365789172515292e-10,
        -0.2902887165546417,
        0.956939160823822
      ],
      "min": [
        0.0,
        -0.290293425321579,
        -0.956939160823822
      ],
      "type": "VEC3"
    },
    {
      "bufferView": 1,
      "byteOffset": 873264,
      "componentType": 5126,
      "count": 80,
      "max": [
        0.31741762161254883,
        0.998052716255188
      ],
      "min": [
        0.2763323485851288,
        0.501947283744812
      ],
      "type": "VEC2"
    },
    {
      "bufferView": 0,
      "byteOffset": 1029600,
      "componentType": 5125,
      "count": 180,
      "type": "SCALAR"
    },
    {
      "bufferView": 2,
      "byteOffset": 2621712,
      "componentType": 5126,
      "count": 2080,
      "max": [
        17.991039276123047,
        1.9053583145141602,
        1.9582958221435547
      ],
      "min": [
        -2.0,
        1.4960945844650269,
        -1.9582958221435547
      ],
      "type": "VEC3"
    },
    {
      "bufferView": 2,
      "byteOffset": 2646672,
      "componentType": 5126,
      "count": 2080,
      "max": [
        0.999968409538269,
        0.7660547494888306,
        0.7660458087921143
      ],
      "min": [
        -0.9999668598175049,
        -0.7660526037216187,
        -0.7660450339317322
      ],
      "type": "VEC3"
    },
    {
      "bufferView": 1,
      "byteOffset": 873904,
      "componentType": 5126,
      "count": 2080,
      "max": [
        1.0,
        1.0
      ],
      "min": [
        0.0,
        0.0
      ],
      "type": "VEC2"
    },
    {
      "bufferView": 0,
      "byteOffset": 1030320,
      "componentType": 5125,
      "count": 5880,
      "type": "SCALAR"
    },
    {
      "bufferView": 2,
      "byteOffset": 2671632,
      "componentType": 5126,
      "count": 45,
      "max": [
        17.991039276123047,
        9.999999747378752e-06,
        1.0
      ],
      "min": [
        -2.0,
        9.999999747378752e-06,
        -1.0
      ],
      "type": "VEC3"
    },
    {
      "bufferView": 2,
      "byteOffset": 2672172,
      "componentType": 5126,
      "count": 45,
      "max": [
        0.0,
        1.0,
        -0.0
      ],
      "min": [
        0.0,
        1.0,
        -0.0
      ],
      "type": "VEC3"
    },
    {
      "bufferView": 3,
      "byteOffset": 286784,
      "componentType": 5126,
      "count": 45,
      "max": [
        7.15815019702859e-07,
        0.0,
        1.0,
        1.0
      ],
      "min": [
        -4.772101078742708e-07,
        0.0,
        -1.0,
        -1.0
      ],
      "type": "VEC4"
    },
    {
      "bufferView": 1,
      "byteOffset": 890544,
      "componentType": 5126,
      "count": 45,
      "max": [
        0.508984386920929,
        1.500439167022705
      ],
      "min": [
        0.009375229477882385,
        -0.4979977607727051
      ],
      "type": "VEC2"
    },
    {
      "bufferView": 0,
      "byteOffset": 1053840,
      "componentType": 5125,
      "count": 105,
      "type": "SCALAR"
    }
  ],
  "asset": {
    "extras": {
      "author": "nenkea (https://sketchfab.com/nenkea)",
      "license": "CC-BY-4.0 (http://creativecommons.org/licenses/by/4.0/)",
      "source": "https://sketchfab.com/3d-models/modern-future-street-2-d4616756f4ef4d3a887776f403e0f519",
      "title": "Modern / Future Street 2"
    },
    "generator": "Sketchfab-14.62.0",
    "version": "2.0"
  },
  "bufferViews": [
    {
      "buffer": 0,
      "byteLength": 1054260,
      "name": "floatBufferViews",
      "target": 34963
    },
    {
      "buffer": 0,
      "byteLength": 890904,
      "byteOffset": 1054260,
      "byteStride": 8,
      "name": "floatBufferViews",
      "target": 34962
    },
    {
      "buffer": 0,
      "byteLength": 2672712,
      "byteOffset": 1945164,
      "byteStride": 12,
      "name": "floatBufferViews",
      "target": 34962
    },
    {
      "buffer": 0,
      "byteLength": 287504,
      "byteOffset": 4617876,
      "byteStride": 16,
      "name": "floatBufferViews",
      "target": 34962
    }
  ],
  "buffers": [
    {
      "byteLength": 4905380,
      "uri": "scene.bin"
    }
  ],
  "extensionsUsed": [
    "KHR_materials_transmission"
  ],
  "images": [
    {
      "uri": "textures/Main_baseColor.jpeg"
    },
    {
      "uri": "textures/Main_metallicRoughness.png"
    },
    {
      "uri": "textures/Main_normal.jpeg"
    },
    {
      "uri": "textures/Normal_Road_baseColor.jpeg"
    },
    {
      "uri": "textures/Normal_Road_metallicRoughness.png"
    },
    {
      "uri": "textures/Normal_Road_normal.jpeg"
    }
  ],
  "materials": [
    {
      "doubleSided": true,
      "name": "Main",
      "normalTexture": {
        "index": 2,
        "scale": 0.778669039753264
      },
      "pbrMetallicRoughness": {
        "baseColorTexture": {
          "index": 0
        },
        "metallicRoughnessTexture": {
          "index": 1
        }
      }
    },
    {
      "doubleSided": true,
      "emissiveFactor": [
        1.0,
        1.0,
        1.0
      ],
      "name": "Backlight",
      "pbrMetallicRoughness": {
        "baseColorFactor": [
          0.8,
          0.8,
          0.8,
          1.0
        ],
        "metallicFactor": 0.0,
        "roughnessFactor": 0.5
      }
    },
    {
      "doubleSided": true,
      "name": "Metal_Normal",
      "pbrMetallicRoughness": {
        "baseColorFactor": [
          0.8,
          0.8,
          0.8,
          1.0
        ],
        "roughnessFactor": 0.309091
      }
    },
    {
      "doubleSided": true,
      "name": "BeeWab",
      "pbrMetallicRoughness": {
        "baseColorFactor": [
          0.8741016688625401,
          0.8741016688625401,
          0.8741016688625401,
          1.0
        ],
        "roughnessFactor": 0.08990503590106179
      }
    },
    {
      "doubleSided": true,
      "emissiveFactor": [
        1.0,
        1.0,
        1.0
      ],
      "name": "Ground_Lights",
      "pbrMetallicRoughness": {
        "baseColorFactor": [
          0.8,
          0.8,
          0.8,
          1.0
        ],
        "metallicFactor": 0.0,
        "roughnessFactor": 0.5
      }
    },
    {
      "doubleSided": true,
      "emissiveFactor": [
        0.0,
        0.225813,
        1.0
      ],
      "name": "Light_Stripes",
      "pbrMetallicRoughness": {
        "baseColorFactor": [
          0.444666,
          0.444666,
          0.444666,
          1.0
        ],
        "roughnessFactor": 0.5
      }
    },
    {
      "doubleSided": true,
      "emissiveFactor": [
        0.0,
        0.161466,
        1.0
      ],
      "name": "Pipe_Light",
      "pbrMetallicRoughness": {
        "baseColorFactor": [
          0.276097,
          0.276097,
          0.276097,
          1.0
        ],
        "roughnessFactor": 0.5
      }
    },
    {
      "alphaMode": "BLEND",
      "doubleSided": true,
      "extensions": {
        "KHR_materials_transmission": {
          "transmissionFactor": 0.95
        }
      },
      "name": "Glass",
      "pbrMetallicRoughness": {
        "baseColorFactor": [
          0.8,
          0.8,
          0.8,
          0.25
        ],
        "metallicFactor": 0.0,
        "roughnessFactor": 0.0
      }
    },
    {
      "doubleSided": true,
      "name": "Normal_Road",
      "normalTexture": {
        "index": 5
      },
      "pbrMetallicRoughness": {
        "baseColorTexture": {
          "index": 3
        },
        "metallicFactor": 0.0,
        "metallicRoughnessTexture": {
          "index": 4
        }
      }
    }
  ],
  "meshes": [
    {
      "name": "Object_0",
      "primitives": [
        {
          "attributes": {
            "NORMAL": 1,
            "POSITION": 0,
            "TANGENT": 2,
            "TEXCOORD_0": 3
          },
          "indices": 4,
          "material": 0,
          "mode": 4
        }
      ]
    },
    {
      "name": "Object_1",
      "primitives": [
        {
          "attributes": {
            "NORMAL": 6,
            "POSITION": 5,
            "TEXCOORD_0": 7
          },
          "indices": 8,
          "material": 1,
          "mode": 4
        }
      ]
    },
    {
      "name": "Object_2",
      "primitives": [
        {
          "attributes": {
            "NORMAL": 10,
            "POSITION": 9,
            "TEXCOORD_0": 11
          },
          "indices": 12,
          "material": 2,
          "mode": 4
        }
      ]
    },
    {
      "name": "Object_3",
      "primitives": [
        {
          "attributes": {
            "NORMAL": 14,
            "POSITION": 13,
            "TEXCOORD_0": 15
          },
          "indices": 16,
          "material": 3,
          "mode": 4
        }
      ]
    },
    {
      "name": "Object_4",
      "primitives": [
        {
          "attributes": {
            "NORMAL": 18,
            "POSITION": 17,
            "TEXCOORD_0": 19
          },
          "indices": 20,
          "material": 3,
          "mode": 4
        }
      ]
    },
    {
      "name": "Object_5",
      "primitives": [
        {
          "attributes": {
            "NORMAL": 22,
            "POSITION": 21,
            "TEXCOORD_0": 23
          },
          "indices": 24,
          "material": 4,
          "mode": 4
        }
      ]
    },
    {
      "name": "Object_6",
      "primitives": [
        {
          "attributes": {
            "NORMAL": 26,
            "POSITION": 25,
            "TEXCOORD_0": 27
          },
          "indices": 28,
          "material": 5,
          "mode": 4
        }
      ]
    },
    {
      "name": "Object_7",
      "primitives": [
        {
          "attributes": {
            "NORMAL": 30,
            "POSITION": 29,
            "TEXCOORD_0": 31
          },
          "indices": 32,
          "material": 6,
          "mode": 4
        }
      ]
    },
    {
      "name": "Object_8",
      "primitives": [
        {
          "attributes": {
            "NORMAL": 34,
            "POSITION": 33,
            "TEXCOORD_0": 35
          },
          "indices": 36,
          "material": 7,
          "mode": 4
        }
      ]
    },
    {
      "name": "Object_9",
      "primitives": [
        {
          "attributes": {
            "NORMAL": 38,
            "POSITION": 37,
            "TANGENT": 39,
            "TEXCOORD_0": 40
          },
          "indices": 41,
          "material": 8,
          "mode": 4
        }
      ]
    }
  ],
  "nodes": [
    {
      "children": [
        1
      ],
      "matrix": [
        5.793613433837891,
        0.0,
        0.0,
        0.0,
        0.0,
        1.2864406060048884e-15,
        -5.793613433837891,
        0.0,
        0.0,
        5.793613433837891,
        1.2864406060048884e-15,
        0.0,
        0.0,
        0.0,
        0.0,
        1.0
      ],
      "name": "Sketchfab_model"
    },
    {
      "children": [
        2
      ],
      "name": "root"
    },
    {
      "children": [
        3
      ],
      "matrix": [
        1.0,
        0.0,
        0.0,
        0.0,
        0.0,
        2.220446049250313e-16,
        1.0,
        0.0,
        0.0,
        -1.0,
        2.220446049250313e-16,
        0.0,
        0.0,
        0.0,
        0.0,
        1.0
      ],
      "name": "GLTF_SceneRootNode"
    },
    {
      "children": [
        4,
        5,
        6,
        7,
        8,
        9,
        10,
        11,
        12,
        13
      ],
      "name": "Plane.001_2"
    },
    {
      "mesh": 0,
      "name": "Object_4"
    },
    {
      "mesh": 1,
      "name": "Object_5"
    },
    {
      "mesh": 2,
      "name": "Object_6"
    },
    {
      "mesh": 3,
      "name": "Object_7"
    },
    {
      "mesh": 4,
      "name": "Object_8"
    },
    {
      "mesh": 5,
      "name": "Object_9"
    },
    {
      "mesh": 6,
      "name": "Object_10"
    },
    {
      "mesh": 7,
      "name": "Object_11"
    },
    {
      "mesh": 8,
      "name": "Object_12"
    },
    {
      "mesh": 9,
      "name": "Object_13"
    }
  ],
  "samplers": [
    {
      "magFilter": 9729,
      "minFilter": 9987,
      "wrapS": 10497,
      "wrapT": 10497
    }
  ],
  "scene": 0,
  "scenes": [
    {
      "name": "Sketchfab_Scene",
      "nodes": [
        0
      ]
    }
  ],
  "textures": [
    {
      "sampler": 0,
      "source": 0
    },
    {
      "sampler": 0,
      "source": 1
    },
    {
      "sampler": 0,
      "source": 2
    },
    {
      "sampler": 0,
      "source": 3
    },
    {
      "sampler": 0,
      "source": 4
    },
    {
      "sampler": 0,
      "source": 5
    }
  ]
}
